<svg width="257" height="64" viewBox="0 0 257 64" fill="none" xmlns="http://www.w3.org/2000/svg">
<g clip-path="url(#clip0_17_2182)">
<rect width="64" height="64" rx="16" fill="#EBEDFA"/>
<rect x="10" y="12" width="16" height="40" fill="#293CA3"/>
<rect x="10" y="44" width="8" height="4" fill="#324056"/>
<rect x="14" y="36" width="4" height="12" fill="#324056"/>
<rect x="26" y="12" width="28" height="40" fill="#4257CF"/>
<rect x="10" y="12" width="44" height="40" fill="url(#paint0_linear_17_2182)" fill-opacity="0.4" style="mix-blend-mode:soft-light"/>
<rect x="6" y="12" width="4" height="40" fill="#324056"/>
<rect x="54" y="12" width="4" height="40" fill="#324056"/>
<rect x="10" y="8" width="44" height="4" fill="#324056"/>
<rect x="10" y="52" width="44" height="4" fill="#324056"/>
<rect x="46" y="20" width="4" height="12" fill="#324056"/>
<rect x="38" y="20" width="4" height="12" fill="#324056"/>
</g>
<path d="M90.16 43.932V23.916H93.4V20.712H103.84V23.916H107.116V34.32H103.84V37.524H94.12V43.932H90.16ZM94.12 33.456H103.12V24.78H94.12V33.456ZM111.465 43.932V27.084H115.425V43.932H111.465ZM111.465 24.78V20.712H115.425V24.78H111.465ZM119.797 43.932V39.9H123.037V36.66H126.277V34.32H123.037V31.116H119.797V27.084H123.757V30.324H126.961V33.456H129.553V30.324H132.757V27.084H136.753V31.116H133.477V34.32H130.237V36.66H133.477V39.9H136.753V43.932H132.757V40.728H129.553V37.524H126.961V40.728H123.757V43.932H119.797ZM142.548 43.932V40.728H139.308V30.324H142.548V27.084H152.988V30.324H156.264V34.32H152.268V31.116H143.268V33.456H149.748V37.524H143.268V39.9H152.268V36.624H156.264V40.692H152.988V43.932H142.548ZM160.613 43.932V20.712H164.573V43.932H160.613ZM172.185 43.932V40.728H168.945V36.66H172.905V39.9H181.905V34.32H172.185V31.116H168.945V23.916H172.185V20.712H182.625V23.916H185.901V27.948H181.905V24.78H172.905V30.324H182.625V33.456H185.901V40.728H182.625V43.932H172.185ZM190.25 43.932V20.712H194.21V30.324H196.73V27.084H203.93V30.324H207.206V43.932H203.21V31.116H197.414V34.32H194.21V43.932H190.25ZM214.091 43.932V40.728H210.851V30.324H214.091V27.084H224.531V30.324H227.807V40.728H224.531V43.932H214.091ZM214.811 39.9H223.811V31.116H214.811V39.9ZM232.156 50.124V30.324H235.396V27.084H245.836V30.324H249.112V40.728H245.836V43.932H236.116V50.124H232.156ZM236.116 39.9H245.116V31.116H236.116V39.9Z" fill="#293CA3"/>
<defs>
<linearGradient id="paint0_linear_17_2182" x1="32" y1="12" x2="32" y2="52" gradientUnits="userSpaceOnUse">
<stop stop-color="white"/>
<stop offset="1" stop-color="white" stop-opacity="0"/>
</linearGradient>
<clipPath id="clip0_17_2182">
<rect width="64" height="64" fill="white"/>
</clipPath>
</defs>
</svg>
